<svg width="256" height="256" viewBox="0 0 256 256" fill="none" xmlns="http://www.w3.org/2000/svg">
<path fill-rule="evenodd" clip-rule="evenodd" d="M35.678 0.517852C27.5327 1.87089 19.476 8.98332 16.9709 17.0326C16.0478 19.9985 15.9969 23.5852 16.0001 85.725C16.0033 156.892 15.9789 156.226 18.9554 166.664C20.6472 172.595 24.0346 179.849 27.5195 185.001C30.7732 189.811 36.1249 195.85 37.0458 195.751C37.418 195.712 37.6062 195.868 37.4631 196.099C37.0432 196.779 41.8965 200.849 54.1109 210.06C99.1094 243.992 109.086 251.368 111.923 252.8C116.743 255.233 120.414 256 127.238 256C135.828 256 140.833 254.515 147.483 249.994C148.795 249.101 164.184 237.752 181.68 224.773C216.026 199.293 221.339 194.786 227 186.33C232.718 177.789 236.601 167.873 238.542 156.862C239.31 152.506 239.434 147.231 239.451 118.152C239.461 99.635 239.293 83.8545 239.077 83.0847C238.86 82.3144 236.355 79.2695 233.51 76.318C228.359 70.9747 228.325 70.9519 225.791 70.9583C224.392 70.962 222.574 71.3135 221.751 71.7387C220.929 72.164 214.797 78.7748 208.125 86.4296C201.454 94.0839 191.098 105.963 185.112 112.828C179.127 119.692 166.968 133.66 158.093 143.866C110.76 198.297 112.279 196.619 110.349 196.619C108.812 196.619 107.877 195.631 48.0027 130.818C36.8831 118.781 35.7235 116.97 36.3714 112.651C36.9568 108.747 43.3667 101.325 48.0732 99.1011C51.9589 97.2656 57.1012 97.3403 61.2128 99.293C63.957 100.596 66.3709 103.013 84.2 122.307C109.105 149.259 108.746 148.902 111.01 148.902C113.27 148.902 113.887 148.269 135.069 124.249C144.069 114.043 161.578 94.2398 173.979 80.2424C200.839 49.9242 199.441 51.5848 199.441 49.9826C199.441 48.9964 194.773 44.0742 179.332 28.7767C168.272 17.8199 157.831 7.73792 156.129 6.37216C152.277 3.28065 147.356 1.0353 143.074 0.416048C138.825 -0.198968 39.4253 -0.104586 35.678 0.517852ZM64.4718 25.4074C68.0288 27.1841 71.9739 31.6498 72.9802 35.0388C74.7346 40.9461 73.5624 46.5263 69.6533 50.8791C66.3943 54.5072 62.7301 56.1672 57.9452 56.182C53.5314 56.1958 51.0703 55.505 47.9555 53.3773C43.723 50.4857 41.2274 45.591 41.2274 40.18C41.2274 33.5564 45.5081 27.3113 51.7442 24.8369C55.4051 23.3842 60.9148 23.6313 64.4718 25.4074Z" fill="#16BDCA"/>
</svg>
