<svg width="32" height="32" viewBox="0 0 32 32" fill="none" xmlns="http://www.w3.org/2000/svg">
<path fill-rule="evenodd" clip-rule="evenodd" d="M4.45974 0.0647315C3.44159 0.233861 2.4345 1.12291 2.12136 2.12907C2.00598 2.49981 1.99962 2.94814 2.00002 10.7156C2.00041 19.6115 1.99736 19.5282 2.36942 20.833C2.5809 21.5744 3.00432 22.4812 3.43993 23.1251C3.84665 23.7263 4.51561 24.4812 4.63073 24.4689C4.67725 24.4639 4.70078 24.4835 4.68289 24.5124C4.6304 24.5974 5.23706 25.1061 6.76387 26.2575C12.3887 30.499 13.6357 31.421 13.9904 31.6C14.5929 31.9041 15.0517 32 15.9048 32C16.9786 32 17.6041 31.8144 18.4354 31.2492C18.5994 31.1377 20.523 29.719 22.71 28.0966C27.0032 24.9116 27.6674 24.3482 28.375 23.2912C29.0897 22.2236 29.5752 20.9841 29.8177 19.6077C29.9137 19.0632 29.9292 18.4039 29.9313 14.769C29.9326 12.4544 29.9116 10.4818 29.8846 10.3856C29.8576 10.2893 29.5444 9.90869 29.1887 9.53974C28.5448 8.87184 28.5406 8.86899 28.2239 8.86979C28.049 8.87025 27.8217 8.91419 27.7189 8.96734C27.6161 9.02049 26.8496 9.84685 26.0156 10.8037C25.1817 11.7605 23.8872 13.2454 23.139 14.1035C22.3909 14.9616 20.871 16.7075 19.7616 17.9832C13.845 24.7871 14.0348 24.5774 13.7936 24.5774C13.6015 24.5774 13.4846 24.4539 6.00033 16.3523C4.61038 14.8476 4.46544 14.6213 4.54643 14.0813C4.61959 13.5933 5.42084 12.6656 6.00915 12.3876C6.49486 12.1582 7.13765 12.1675 7.65159 12.4116C7.99462 12.5745 8.29637 12.8767 10.525 15.2884C13.6382 18.6574 13.5933 18.6128 13.8762 18.6128C14.1587 18.6128 14.2359 18.5337 16.8837 15.5311C18.0086 14.2553 20.1973 11.78 21.7474 10.0303C25.1048 6.24053 24.9301 6.4481 24.9301 6.24782C24.9301 6.12455 24.3467 5.50927 22.4165 3.59709C21.034 2.22749 19.7289 0.967239 19.5162 0.79652C19.0347 0.410081 18.4195 0.129413 17.8843 0.0520059C17.3531 -0.024871 4.92816 -0.0130733 4.45974 0.0647315ZM8.05898 3.17593C8.5036 3.39801 8.99674 3.95623 9.12253 4.37985C9.34183 5.11826 9.1953 5.81579 8.70666 6.35989C8.29928 6.8134 7.84127 7.0209 7.24315 7.02275C6.69143 7.02448 6.38379 6.93812 5.99443 6.67217C5.46538 6.31071 5.15343 5.69888 5.15343 5.0225C5.15343 4.19455 5.68852 3.41391 6.46802 3.10462C6.92564 2.92303 7.61435 2.95391 8.05898 3.17593Z" fill="#16BDCA"/>
</svg>
