<svg width="140" height="32" viewBox="0 0 140 32" fill="none" xmlns="http://www.w3.org/2000/svg">
<path fill-rule="evenodd" clip-rule="evenodd" d="M2.45974 0.0647315C1.44159 0.233861 0.434502 1.12291 0.121361 2.12907C0.00597972 2.49981 -0.000382087 2.94814 1.55526e-05 10.7156C0.000413192 19.6115 -0.00263706 19.5282 0.369421 20.833C0.580899 21.5744 1.00432 22.4812 1.43993 23.1251C1.84665 23.7263 2.51561 24.4812 2.63073 24.4689C2.67725 24.4639 2.70078 24.4835 2.68289 24.5124C2.6304 24.5974 3.23706 25.1061 4.76387 26.2575C10.3887 30.499 11.6357 31.421 11.9904 31.6C12.5929 31.9041 13.0517 32 13.9048 32C14.9786 32 15.6041 31.8144 16.4354 31.2492C16.5994 31.1377 18.523 29.719 20.71 28.0966C25.0032 24.9116 25.6674 24.3482 26.375 23.2912C27.0897 22.2236 27.5752 20.9841 27.8177 19.6077C27.9137 19.0632 27.9292 18.4039 27.9313 14.769C27.9326 12.4544 27.9116 10.4818 27.8846 10.3856C27.8576 10.2893 27.5444 9.90869 27.1887 9.53974C26.5448 8.87184 26.5406 8.86899 26.2239 8.86979C26.049 8.87025 25.8217 8.91419 25.7189 8.96734C25.6161 9.02049 24.8496 9.84685 24.0156 10.8037C23.1817 11.7605 21.8872 13.2454 21.139 14.1035C20.3909 14.9616 18.871 16.7075 17.7616 17.9832C11.845 24.7871 12.0348 24.5774 11.7936 24.5774C11.6015 24.5774 11.4846 24.4539 4.00033 16.3523C2.61038 14.8476 2.46544 14.6213 2.54643 14.0813C2.61959 13.5933 3.42084 12.6656 4.00915 12.3876C4.49486 12.1582 5.13765 12.1675 5.65159 12.4116C5.99462 12.5745 6.29637 12.8767 8.525 15.2884C11.6382 18.6574 11.5933 18.6128 11.8762 18.6128C12.1587 18.6128 12.2359 18.5337 14.8837 15.5311C16.0086 14.2553 18.1973 11.78 19.7474 10.0303C23.1048 6.24053 22.9301 6.4481 22.9301 6.24782C22.9301 6.12455 22.3467 5.50927 20.4165 3.59709C19.034 2.22749 17.7289 0.967239 17.5162 0.79652C17.0347 0.410081 16.4195 0.129413 15.8843 0.0520059C15.3531 -0.024871 2.92816 -0.0130733 2.45974 0.0647315ZM6.05898 3.17593C6.5036 3.39801 6.99674 3.95623 7.12253 4.37985C7.34183 5.11826 7.1953 5.81579 6.70666 6.35989C6.29928 6.8134 5.84127 7.0209 5.24315 7.02275C4.69143 7.02448 4.38379 6.93812 3.99443 6.67217C3.46538 6.31071 3.15343 5.69888 3.15343 5.0225C3.15343 4.19455 3.68852 3.41391 4.46802 3.10462C4.92564 2.92303 5.61435 2.95391 6.05898 3.17593Z" fill="#16BDCA"/>
<path d="M130.374 26.9L132.794 21.38H132.194L128.154 12.42H131.194L134.054 18.8L136.554 12.42H139.534L133.334 26.9H130.374Z" fill="white"/>
<path d="M122.434 22.5V11.58C122.434 10.7267 122.58 10.0467 122.874 9.54C123.167 9.03333 123.574 8.66667 124.094 8.44C124.627 8.21333 125.254 8.1 125.974 8.1H127.234V10.48H126.414C125.987 10.48 125.68 10.5667 125.494 10.74C125.32 10.9 125.234 11.18 125.234 11.58V22.5H122.434ZM121.074 14.76V12.42H127.374V14.76H121.074Z" fill="white"/>
<path d="M116.907 22.5V12.42H119.707V22.5H116.907ZM118.307 11.12C117.8 11.12 117.387 10.9733 117.067 10.68C116.747 10.3733 116.587 10 116.587 9.56C116.587 9.10667 116.747 8.73333 117.067 8.44C117.387 8.14667 117.8 8 118.307 8C118.814 8 119.227 8.14667 119.547 8.44C119.867 8.73333 120.027 9.10667 120.027 9.56C120.027 10 119.867 10.3733 119.547 10.68C119.227 10.9733 118.814 11.12 118.307 11.12Z" fill="white"/>
<path d="M108.985 22.5V12.42H111.465L111.725 14.28C111.978 13.84 112.285 13.4667 112.645 13.16C113.005 12.8533 113.425 12.6133 113.905 12.44C114.385 12.2667 114.905 12.18 115.465 12.18V15.14H114.525C114.125 15.14 113.752 15.1867 113.405 15.28C113.072 15.3733 112.779 15.5267 112.525 15.74C112.285 15.94 112.099 16.22 111.965 16.58C111.845 16.9267 111.785 17.3667 111.785 17.9V22.5H108.985Z" fill="white"/>
<path d="M102.136 22.74C101.122 22.74 100.222 22.5267 99.4358 22.1C98.6625 21.66 98.0558 21.0533 97.6158 20.28C97.1758 19.4933 96.9558 18.5867 96.9558 17.56C96.9558 16.52 97.1691 15.6 97.5958 14.8C98.0358 13.9867 98.6425 13.3467 99.4158 12.88C100.202 12.4133 101.116 12.18 102.156 12.18C103.156 12.18 104.029 12.4 104.776 12.84C105.536 13.28 106.122 13.8733 106.536 14.62C106.962 15.3667 107.176 16.2267 107.176 17.2C107.176 17.3333 107.169 17.48 107.156 17.64C107.156 17.8 107.142 17.9733 107.116 18.16H98.9558V16.46H104.336C104.296 15.8467 104.069 15.36 103.656 15C103.256 14.6267 102.756 14.44 102.156 14.44C101.702 14.44 101.289 14.5467 100.916 14.76C100.542 14.9733 100.249 15.2867 100.036 15.7C99.8225 16.1133 99.7158 16.64 99.7158 17.28V17.86C99.7158 18.38 99.8158 18.84 100.016 19.24C100.216 19.6267 100.496 19.9267 100.856 20.14C101.216 20.3533 101.636 20.46 102.116 20.46C102.596 20.46 102.989 20.36 103.296 20.16C103.616 19.96 103.856 19.7 104.016 19.38H106.876C106.689 20.0067 106.369 20.5733 105.916 21.08C105.476 21.5867 104.936 21.9933 104.296 22.3C103.656 22.5933 102.936 22.74 102.136 22.74Z" fill="white"/>
<path d="M85.2344 22.5V8.1H88.0344V13.9C88.3544 13.38 88.7877 12.9667 89.3344 12.66C89.8944 12.34 90.5411 12.18 91.2744 12.18C92.1144 12.18 92.8211 12.36 93.3944 12.72C93.9677 13.0667 94.4011 13.58 94.6944 14.26C95.0011 14.9267 95.1544 15.7533 95.1544 16.74V22.5H92.3744V17C92.3744 16.2133 92.2077 15.6067 91.8744 15.18C91.5411 14.7533 91.0277 14.54 90.3344 14.54C89.8944 14.54 89.4944 14.6467 89.1344 14.86C88.7877 15.0733 88.5144 15.3733 88.3144 15.76C88.1277 16.1467 88.0344 16.6133 88.0344 17.16V22.5H85.2344Z" fill="white"/>
<path d="M78.3274 22.74C77.314 22.74 76.414 22.5133 75.6274 22.06C74.8407 21.6067 74.2207 20.9867 73.7674 20.2C73.3274 19.4133 73.1074 18.5133 73.1074 17.5C73.1074 16.46 73.3274 15.5467 73.7674 14.76C74.2207 13.96 74.8407 13.3333 75.6274 12.88C76.414 12.4133 77.3207 12.18 78.3474 12.18C79.6407 12.18 80.7274 12.5267 81.6074 13.22C82.5007 13.9 83.0674 14.84 83.3074 16.04H80.3274C80.2207 15.5867 79.9807 15.2333 79.6074 14.98C79.2474 14.7133 78.814 14.58 78.3074 14.58C77.854 14.58 77.4474 14.7 77.0874 14.94C76.7407 15.1667 76.4674 15.4933 76.2674 15.92C76.0674 16.3467 75.9674 16.86 75.9674 17.46C75.9674 17.9133 76.0207 18.32 76.1274 18.68C76.2474 19.0267 76.4074 19.3267 76.6074 19.58C76.8207 19.8333 77.074 20.0267 77.3674 20.16C77.6607 20.2933 77.974 20.36 78.3074 20.36C78.654 20.36 78.9607 20.3067 79.2274 20.2C79.494 20.08 79.7274 19.9133 79.9274 19.7C80.1274 19.4733 80.2607 19.2067 80.3274 18.9H83.3074C83.0674 20.0733 82.5007 21.0067 81.6074 21.7C80.714 22.3933 79.6207 22.74 78.3274 22.74Z" fill="white"/>
<path d="M65.1655 22.74C64.3521 22.74 63.6521 22.5733 63.0655 22.24C62.4921 21.8933 62.0522 21.3867 61.7455 20.72C61.4388 20.0533 61.2855 19.2333 61.2855 18.26V12.42H64.0855V17.98C64.0855 18.7667 64.2455 19.3667 64.5655 19.78C64.8988 20.18 65.4122 20.38 66.1055 20.38C66.5455 20.38 66.9388 20.28 67.2855 20.08C67.6322 19.88 67.8988 19.5933 68.0855 19.22C68.2855 18.8333 68.3855 18.36 68.3855 17.8V12.42H71.1855V22.5H68.7255L68.5055 20.88C68.2122 21.44 67.7788 21.8933 67.2055 22.24C66.6455 22.5733 65.9655 22.74 65.1655 22.74Z" fill="white"/>
<path d="M54.3394 22.74C53.3794 22.74 52.5127 22.52 51.7394 22.08C50.9661 21.6267 50.3527 21 49.8994 20.2C49.4594 19.4 49.2394 18.4933 49.2394 17.48C49.2394 16.44 49.4594 15.52 49.8994 14.72C50.3527 13.92 50.9661 13.3 51.7394 12.86C52.5127 12.4067 53.3861 12.18 54.3594 12.18C55.3327 12.18 56.2061 12.4067 56.9794 12.86C57.7527 13.3 58.3594 13.92 58.7994 14.72C59.2527 15.5067 59.4794 16.42 59.4794 17.46C59.4794 18.5 59.2527 19.42 58.7994 20.22C58.3461 21.0067 57.7327 21.6267 56.9594 22.08C56.1994 22.52 55.3261 22.74 54.3394 22.74ZM54.3394 20.32C54.7794 20.32 55.1661 20.2133 55.4994 20C55.8327 19.7867 56.0994 19.4667 56.2994 19.04C56.5127 18.6133 56.6194 18.0867 56.6194 17.46C56.6194 16.8333 56.5194 16.3067 56.3194 15.88C56.1194 15.4533 55.8461 15.1333 55.4994 14.92C55.1661 14.7067 54.7861 14.6 54.3594 14.6C53.9461 14.6 53.5661 14.7067 53.2194 14.92C52.8727 15.1333 52.5994 15.4533 52.3994 15.88C52.1994 16.3067 52.0994 16.8333 52.0994 17.46C52.0994 18.0867 52.1994 18.6133 52.3994 19.04C52.5994 19.4667 52.8661 19.7867 53.1994 20C53.5461 20.2133 53.9261 20.32 54.3394 20.32Z" fill="white"/>
<path d="M41.0111 22.5L35.9311 8.5H38.9311L42.7511 19.66L46.5911 8.5H49.5511L44.4711 22.5H41.0111Z" fill="white"/>
</svg>
