<svg width="210" height="48" viewBox="0 0 210 48" fill="none" xmlns="http://www.w3.org/2000/svg">
<path fill-rule="evenodd" clip-rule="evenodd" d="M3.68962 0.0970972C2.16238 0.350791 0.651753 1.68437 0.182042 3.19361C0.00896958 3.74971 -0.00057313 4.42222 2.33289e-05 16.0734C0.000619788 29.4173 -0.00395559 29.2924 0.554131 31.2494C0.871348 32.3616 1.50648 33.7218 2.1599 34.6876C2.76998 35.5895 3.77342 36.7219 3.94609 36.7034C4.01588 36.6959 4.05117 36.7252 4.02433 36.7686C3.9456 36.8961 4.8556 37.6592 7.1458 39.3862C15.583 45.7486 17.4536 47.1315 17.9856 47.4001C18.8893 47.8562 19.5776 48 20.8572 48C22.4678 48 23.4062 47.7217 24.6531 46.8738C24.8991 46.7065 27.7845 44.5785 31.065 42.1449C37.5049 37.3674 38.501 36.5223 39.5624 34.9369C40.6346 33.3354 41.3628 31.4762 41.7266 29.4116C41.8705 28.5948 41.8938 27.6058 41.897 22.1534C41.899 18.6816 41.8675 15.7227 41.8269 15.5784C41.7863 15.4339 41.3166 14.863 40.7831 14.3096C39.8172 13.3078 39.811 13.3035 39.3359 13.3047C39.0735 13.3054 38.7326 13.3713 38.5783 13.451C38.4241 13.5307 37.2744 14.7703 36.0235 16.2056C34.7726 17.6407 32.8308 19.8681 31.7086 21.1553C30.5863 22.4423 28.3066 25.0612 26.6424 26.9748C17.7675 37.1806 18.0522 36.8661 17.6904 36.8661C17.4023 36.8661 17.2268 36.6809 6.0005 24.5284C3.91558 22.2714 3.69817 21.932 3.81964 21.122C3.92939 20.39 5.13126 18.9984 6.01372 18.5815C6.74229 18.2373 7.70647 18.2513 8.47739 18.6174C8.99194 18.8618 9.44455 19.315 12.7875 22.9326C17.4573 27.9861 17.3899 27.9192 17.8144 27.9192C18.238 27.9192 18.3539 27.8005 22.3255 23.2967C24.013 21.383 27.296 17.67 29.6211 15.0454C34.6573 9.3608 34.3952 9.67215 34.3952 9.37173C34.3952 9.18683 33.52 8.26391 30.6248 5.39564C28.551 3.34124 26.5933 1.45086 26.2742 1.19478C25.552 0.615121 24.6292 0.19412 23.8265 0.0780089C23.0296 -0.0373065 4.39225 -0.0196099 3.68962 0.0970972ZM9.08846 4.76389C9.7554 5.09701 10.4951 5.93434 10.6838 6.56977C11.0127 7.67739 10.7929 8.72368 10.06 9.53983C9.44892 10.2201 8.7619 10.5313 7.86473 10.5341C7.03714 10.5367 6.57568 10.4072 5.99165 10.0083C5.19806 9.46607 4.73014 8.54832 4.73014 7.53374C4.73014 6.29182 5.53278 5.12087 6.70203 4.65692C7.38846 4.38454 8.42152 4.43087 9.08846 4.76389Z" fill="#16BDCA"/>
<path d="M195.561 40.35L199.191 32.07H198.291L192.231 18.63H196.791L201.081 28.2L204.831 18.63H209.301L200.001 40.35H195.561Z" fill="black"/>
<path d="M183.651 33.75V17.37C183.651 16.09 183.871 15.07 184.311 14.31C184.751 13.55 185.361 13 186.141 12.66C186.941 12.32 187.881 12.15 188.961 12.15H190.851V15.72H189.621C188.981 15.72 188.521 15.85 188.241 16.11C187.981 16.35 187.851 16.77 187.851 17.37V33.75H183.651ZM181.611 22.14V18.63H191.061V22.14H181.611Z" fill="black"/>
<path d="M175.36 33.75V18.63H179.56V33.75H175.36ZM177.46 16.68C176.7 16.68 176.08 16.46 175.6 16.02C175.12 15.56 174.88 15 174.88 14.34C174.88 13.66 175.12 13.1 175.6 12.66C176.08 12.22 176.7 12 177.46 12C178.22 12 178.84 12.22 179.32 12.66C179.8 13.1 180.04 13.66 180.04 14.34C180.04 15 179.8 15.56 179.32 16.02C178.84 16.46 178.22 16.68 177.46 16.68Z" fill="black"/>
<path d="M163.478 33.75V18.63H167.198L167.588 21.42C167.968 20.76 168.428 20.2 168.968 19.74C169.508 19.28 170.138 18.92 170.858 18.66C171.578 18.4 172.358 18.27 173.198 18.27V22.71H171.788C171.188 22.71 170.628 22.78 170.108 22.92C169.608 23.06 169.168 23.29 168.788 23.61C168.428 23.91 168.148 24.33 167.948 24.87C167.768 25.39 167.678 26.05 167.678 26.85V33.75H163.478Z" fill="black"/>
<path d="M153.204 34.11C151.684 34.11 150.334 33.79 149.154 33.15C147.994 32.49 147.084 31.58 146.424 30.42C145.764 29.24 145.434 27.88 145.434 26.34C145.434 24.78 145.754 23.4 146.394 22.2C147.054 20.98 147.964 20.02 149.124 19.32C150.304 18.62 151.674 18.27 153.234 18.27C154.734 18.27 156.044 18.6 157.164 19.26C158.304 19.92 159.184 20.81 159.804 21.93C160.444 23.05 160.764 24.34 160.764 25.8C160.764 26 160.754 26.22 160.734 26.46C160.734 26.7 160.714 26.96 160.674 27.24H148.434V24.69H156.504C156.444 23.77 156.104 23.04 155.484 22.5C154.884 21.94 154.134 21.66 153.234 21.66C152.554 21.66 151.934 21.82 151.374 22.14C150.814 22.46 150.374 22.93 150.054 23.55C149.734 24.17 149.574 24.96 149.574 25.92V26.79C149.574 27.57 149.724 28.26 150.024 28.86C150.324 29.44 150.744 29.89 151.284 30.21C151.824 30.53 152.454 30.69 153.174 30.69C153.894 30.69 154.484 30.54 154.944 30.24C155.424 29.94 155.784 29.55 156.024 29.07H160.314C160.034 30.01 159.554 30.86 158.874 31.62C158.214 32.38 157.404 32.99 156.444 33.45C155.484 33.89 154.404 34.11 153.204 34.11Z" fill="black"/>
<path d="M127.852 33.75V12.15H132.052V20.85C132.532 20.07 133.182 19.45 134.002 18.99C134.842 18.51 135.812 18.27 136.912 18.27C138.172 18.27 139.232 18.54 140.092 19.08C140.952 19.6 141.602 20.37 142.042 21.39C142.502 22.39 142.732 23.63 142.732 25.11V33.75H138.562V25.5C138.562 24.32 138.312 23.41 137.812 22.77C137.312 22.13 136.542 21.81 135.502 21.81C134.842 21.81 134.242 21.97 133.702 22.29C133.182 22.61 132.772 23.06 132.472 23.64C132.192 24.22 132.052 24.92 132.052 25.74V33.75H127.852Z" fill="black"/>
<path d="M117.491 34.11C115.971 34.11 114.621 33.77 113.441 33.09C112.261 32.41 111.331 31.48 110.651 30.3C109.991 29.12 109.661 27.77 109.661 26.25C109.661 24.69 109.991 23.32 110.651 22.14C111.331 20.94 112.261 20 113.441 19.32C114.621 18.62 115.981 18.27 117.521 18.27C119.461 18.27 121.091 18.79 122.411 19.83C123.751 20.85 124.601 22.26 124.961 24.06H120.491C120.331 23.38 119.971 22.85 119.411 22.47C118.871 22.07 118.221 21.87 117.461 21.87C116.781 21.87 116.171 22.05 115.631 22.41C115.111 22.75 114.701 23.24 114.401 23.88C114.101 24.52 113.951 25.29 113.951 26.19C113.951 26.87 114.031 27.48 114.191 28.02C114.371 28.54 114.611 28.99 114.911 29.37C115.231 29.75 115.611 30.04 116.051 30.24C116.491 30.44 116.961 30.54 117.461 30.54C117.981 30.54 118.441 30.46 118.841 30.3C119.241 30.12 119.591 29.87 119.891 29.55C120.191 29.21 120.391 28.81 120.491 28.35H124.961C124.601 30.11 123.751 31.51 122.411 32.55C121.071 33.59 119.431 34.11 117.491 34.11Z" fill="black"/>
<path d="M97.7482 34.11C96.5282 34.11 95.4782 33.86 94.5982 33.36C93.7382 32.84 93.0782 32.08 92.6182 31.08C92.1582 30.08 91.9282 28.85 91.9282 27.39V18.63H96.1282V26.97C96.1282 28.15 96.3682 29.05 96.8482 29.67C97.3482 30.27 98.1182 30.57 99.1582 30.57C99.8182 30.57 100.408 30.42 100.928 30.12C101.448 29.82 101.848 29.39 102.128 28.83C102.428 28.25 102.578 27.54 102.578 26.7V18.63H106.778V33.75H103.088L102.758 31.32C102.318 32.16 101.668 32.84 100.808 33.36C99.9682 33.86 98.9482 34.11 97.7482 34.11Z" fill="black"/>
<path d="M81.5091 34.11C80.0691 34.11 78.7691 33.78 77.6091 33.12C76.4491 32.44 75.5291 31.5 74.8491 30.3C74.1891 29.1 73.8591 27.74 73.8591 26.22C73.8591 24.66 74.1891 23.28 74.8491 22.08C75.5291 20.88 76.4491 19.95 77.6091 19.29C78.7691 18.61 80.0791 18.27 81.5391 18.27C82.9991 18.27 84.3091 18.61 85.4691 19.29C86.6291 19.95 87.5391 20.88 88.1991 22.08C88.8791 23.26 89.2191 24.63 89.2191 26.19C89.2191 27.75 88.8791 29.13 88.1991 30.33C87.5191 31.51 86.5991 32.44 85.4391 33.12C84.2991 33.78 82.9891 34.11 81.5091 34.11ZM81.5091 30.48C82.1691 30.48 82.7491 30.32 83.2491 30C83.7491 29.68 84.1491 29.2 84.4491 28.56C84.7691 27.92 84.9291 27.13 84.9291 26.19C84.9291 25.25 84.7791 24.46 84.4791 23.82C84.1791 23.18 83.7691 22.7 83.2491 22.38C82.7491 22.06 82.1791 21.9 81.5391 21.9C80.9191 21.9 80.3491 22.06 79.8291 22.38C79.3091 22.7 78.8991 23.18 78.5991 23.82C78.2991 24.46 78.1491 25.25 78.1491 26.19C78.1491 27.13 78.2991 27.92 78.5991 28.56C78.8991 29.2 79.2991 29.68 79.7991 30C80.3191 30.32 80.8891 30.48 81.5091 30.48Z" fill="black"/>
<path d="M61.5167 33.75L53.8967 12.75H58.3967L64.1267 29.49L69.8867 12.75H74.3267L66.7067 33.75H61.5167Z" fill="black"/>
</svg>
